<svg id="레이어_1" data-name="레이어 1" xmlns="http://www.w3.org/2000/svg" viewBox="0 0 1442 544"><defs><style>.cls-1{fill:#ffe51e;}</style></defs><polygon class="cls-1" points="26.69 409.81 26.69 383.11 0 389.03 0 362.34 53.4 350.48 53.4 377.17 133.48 359.39 133.48 305.99 26.69 329.71 26.69 303.03 0 308.95 0 255.55 26.69 249.63 26.69 222.93 160.18 193.28 160.18 219.99 186.87 214.06 186.87 240.76 133.48 252.61 133.48 225.91 53.4 243.69 53.4 297.09 160.18 273.38 160.18 300.07 186.87 294.15 186.87 347.54 160.18 353.47 160.18 380.17 26.69 409.81"/><path class="cls-1" d="M240.27,362.38V335.69l-26.69,5.92V208.12l26.69-5.92V175.5l133.49-29.63v26.7l26.7-5.93V300.13l-26.7,5.93v26.69ZM267,329.76,347.06,312V178.5L267,196.28Z"/><path class="cls-1" d="M453.86,315v-26.7l-26.7,5.93V160.71l26.7-5.92v-26.7L587.34,98.45v26.7l26.7-5.93V252.71l-26.7,5.92v26.7Zm26.7-32.63,80.1-17.77V131.08l-80.1,17.78Z"/><path class="cls-1" d="M667.43,267.56v-26.7l-26.7,5.92V113.3l26.7-5.93V80.67L800.93,51v26.7l26.68-5.93V205.3l-26.68,5.92v26.7Zm26.7-32.64,80.1-17.78V83.66l-80.1,17.78Z"/><path class="cls-1" d="M881,220.14v-26.7l-26.69,5.92V65.88L881,60V33.25l133.5-29.63v26.7l26.68-5.93V157.88l-26.68,5.93v26.7Zm26.71-32.63,80.09-17.78V36.25L907.72,54Z"/><path class="cls-1" d="M427.24,540.38V353.5l160.19-35.57v26.7l26.68-5.92V418.8l-53.38,11.84v26.7l26.7-5.92v26.7l26.68-5.93v26.7L534,516.67V490l-26.7,5.92V469.2l-26.69,5.92v53.4Zm53.4-92L534,436.58V409.89l26.7-5.94v-53.4l-80.09,17.79Z"/><polygon class="cls-1" points="694.47 483.85 694.47 403.75 667.79 409.69 667.79 383 641.07 388.92 641.07 308.82 694.47 296.98 694.47 377.07 747.87 365.21 747.87 285.12 801.27 273.26 801.27 353.36 774.57 359.29 774.57 385.98 747.87 391.9 747.87 472 694.47 483.85"/><polygon class="cls-1" points="827.97 454.22 827.97 267.34 1014.85 225.85 1014.85 252.54 881.37 282.17 881.37 335.57 988.15 311.87 988.15 338.56 881.37 362.26 881.37 415.66 1014.85 386.03 1014.85 412.73 827.97 454.22"/><path class="cls-1" d="M1068.24,400.88v-26.7l-26.7,5.92V246.62l26.7-5.92V214l133.49-29.64v26.7l26.69-5.93V338.62l-26.69,5.92v26.7Zm26.7-32.63L1175,350.46V217l-80.09,17.78Z"/><polygon class="cls-1" points="1255.13 359.38 1255.13 172.5 1308.53 160.65 1308.53 187.35 1335.22 181.42 1335.22 208.11 1361.91 202.19 1361.91 228.89 1388.62 222.97 1388.62 142.87 1442 131.01 1442 317.89 1388.62 329.75 1388.62 276.36 1361.91 282.28 1361.91 255.57 1335.22 261.51 1335.22 234.81 1308.53 240.75 1308.53 347.54 1255.13 359.38"/></svg>