<svg id="레이어_1" data-name="레이어 1" xmlns="http://www.w3.org/2000/svg" viewBox="0 0 930 930"><defs><style>.cls-1{fill:#cdf463;}</style></defs><polygon class="cls-1" points="898.02 376.14 910.1 344.46 922.18 312.78 890.5 300.7 902.58 269.02 870.9 256.94 839.23 244.86 851.3 213.18 819.63 201.1 831.71 169.43 800.03 157.35 768.35 145.27 736.67 133.19 748.75 101.51 717.08 89.43 685.4 77.35 653.72 65.27 622.04 53.19 590.36 41.11 558.69 29.03 527.01 16.95 495.33 4.87 483.25 36.54 451.57 24.46 419.89 12.38 388.22 0.3 376.14 31.98 344.46 19.9 332.38 51.58 300.7 39.5 269.02 27.42 256.94 59.1 225.26 47.02 213.18 78.69 201.1 110.37 169.43 98.29 157.35 129.97 145.27 161.65 133.19 193.33 101.51 181.25 89.43 212.92 77.35 244.6 65.27 276.28 53.19 307.96 41.11 339.64 29.03 371.31 16.95 402.99 4.87 434.67 36.54 446.75 24.46 478.43 12.38 510.11 0.3 541.78 31.98 553.86 19.9 585.54 7.82 617.22 39.5 629.3 27.42 660.98 59.1 673.06 90.78 685.14 78.69 716.82 110.37 728.9 98.29 760.57 129.97 772.65 161.65 784.73 193.33 796.81 181.25 828.49 212.92 840.57 244.6 852.65 276.28 864.73 307.96 876.81 339.64 888.89 371.31 900.97 402.99 913.05 434.67 925.13 446.75 893.46 478.43 905.54 510.11 917.62 541.78 929.7 553.86 898.02 585.54 910.1 597.62 878.42 629.3 890.5 660.98 902.58 673.06 870.9 704.74 882.98 716.82 851.3 728.9 819.63 760.57 831.71 772.65 800.03 784.73 768.35 796.81 736.67 765.14 724.59 733.46 712.51 745.54 680.84 713.86 668.75 682.18 656.67 650.5 644.6 618.83 632.51 630.91 600.84 599.23 588.76 567.55 576.68 535.87 564.6 504.19 552.52 516.28 520.84 484.6 508.76 452.92 496.68 465 465 477.08 433.32 508.76 445.4 540.44 457.48 552.52 425.81 584.19 437.88 615.87 449.96 647.55 462.05 679.23 474.13 691.31 442.45 703.39 410.77 735.07 422.85 766.74 434.93 830.14 459.11 832.73 452.33 842.39 427.49 873.86 439.49 905.54 451.57 917.62 419.89 929.7 388.22 898.02 376.14"/></svg>