<svg id="레이어_1" data-name="레이어 1" xmlns="http://www.w3.org/2000/svg" viewBox="0 0 938 938"><defs><style>.cls-1{fill:#00c18a;}.cls-2{fill:#9462d1;}</style></defs><polygon class="cls-1" points="225.65 838.03 239.5 868.97 253.36 899.91 284.3 886.05 298.16 916.99 329.1 903.14 360.04 889.28 373.9 920.22 404.84 906.36 418.7 937.3 449.64 923.45 480.58 909.59 511.53 895.73 525.38 926.67 556.33 912.81 587.27 898.96 618.21 885.1 649.15 871.24 680.09 857.38 711.03 843.53 741.98 829.67 772.92 815.81 759.06 784.87 790 771.01 820.94 757.15 851.88 743.3 838.03 712.35 868.97 698.5 855.11 667.55 886.05 653.7 916.99 639.84 903.14 608.9 934.08 595.04 920.22 564.1 906.36 533.16 937.3 519.3 923.45 488.36 909.59 457.42 895.73 426.47 926.67 412.62 912.81 381.68 898.96 350.73 885.1 319.79 871.24 288.85 857.38 257.91 843.53 226.97 829.67 196.03 815.81 165.08 784.87 178.94 771.01 148 757.15 117.06 743.3 86.12 712.35 99.97 698.5 69.03 684.64 38.09 653.7 51.95 639.84 21.01 608.9 34.86 577.96 48.72 564.1 17.78 533.16 31.64 519.3 0.7 488.36 14.55 457.42 28.41 426.47 42.27 412.62 11.33 381.68 25.19 350.73 39.04 319.79 52.9 288.85 66.76 257.91 80.62 226.97 94.47 196.03 108.33 165.08 122.19 178.94 153.13 148 166.99 117.06 180.85 86.12 194.7 99.97 225.65 69.03 239.5 82.89 270.44 51.95 284.3 21.01 298.16 34.86 329.1 3.92 342.96 17.78 373.9 31.64 404.84 0.7 418.7 14.55 449.64 28.41 480.58 42.27 511.53 73.21 497.67 104.15 483.81 118.01 514.75 148.95 500.89 179.89 487.04 210.84 473.18 241.78 459.32 255.63 490.26 286.58 476.4 317.52 462.55 348.46 448.69 379.4 434.83 393.26 465.77 424.2 451.92 455.14 438.06 469 469 482.86 499.94 451.92 513.8 420.97 527.66 434.83 558.6 403.89 572.46 372.95 586.31 342.01 600.17 311.07 614.03 324.92 644.97 338.78 675.91 307.84 689.77 276.9 703.63 214.97 731.36 217.94 737.98 228.67 762.38 197.93 776.14 166.99 790 180.85 820.94 194.7 851.88 225.65 838.03"/><rect class="cls-2" x="63.59" y="577.06" width="102.62" height="102.62" transform="translate(-231.72 91.8) rotate(-22.5)"/></svg>