<svg id="레이어_1" data-name="레이어 1" xmlns="http://www.w3.org/2000/svg" viewBox="0 0 1034 1046"><defs><style>.cls-1{fill:#1f86c0;}.cls-2{fill:#fff;}.cls-3{fill:#fc709b;}</style></defs><polygon class="cls-1" points="781.82 526.56 753.42 509.3 725.01 492.03 707.75 520.43 690.48 548.84 673.22 577.24 701.62 594.51 730.02 611.77 758.42 629.04 775.69 600.64 792.96 572.23 810.22 543.83 781.82 526.56"/><polygon class="cls-2" points="907.69 447.49 924.96 419.08 896.55 401.81 913.82 373.41 885.42 356.15 857.02 338.88 828.61 321.61 811.35 350.02 782.94 332.75 765.68 361.15 737.27 343.89 720.01 372.29 702.74 400.69 685.48 429.1 668.21 457.5 650.94 485.9 679.35 503.17 662.08 531.57 690.48 548.84 707.75 520.43 725.01 492.03 753.42 509.3 781.82 526.56 810.22 543.83 792.96 572.23 775.69 600.64 804.09 617.9 821.36 589.5 849.76 606.76 867.03 578.36 884.3 549.96 901.56 521.56 918.83 493.15 936.1 464.75 907.69 447.49"/><polygon class="cls-1" points="469.39 336.63 440.99 319.37 412.58 302.1 395.32 330.5 378.05 358.91 360.78 387.31 389.19 404.58 417.59 421.84 445.99 439.11 463.26 410.71 480.52 382.3 497.79 353.9 469.39 336.63"/><polygon class="cls-2" points="595.26 257.56 612.53 229.15 584.12 211.89 601.39 183.48 572.99 166.22 544.58 148.95 516.18 131.68 498.92 160.09 470.51 142.82 453.25 171.22 424.84 153.96 407.58 182.36 390.31 210.76 373.04 239.17 355.78 267.57 338.51 295.97 366.91 313.24 349.65 341.64 378.05 358.91 395.32 330.5 412.58 302.1 440.99 319.37 469.39 336.63 497.79 353.9 480.52 382.3 463.26 410.71 491.66 427.97 508.93 399.57 537.33 416.84 554.6 388.43 571.86 360.03 589.13 331.63 606.4 303.22 623.66 274.82 595.26 257.56"/><path class="cls-3" d="M986.77,573.36,1004,545l17.26-28.4-28.4-17.27,17.27-28.4,17.26-28.4L999,425.21l17.27-28.4,17.26-28.4-28.4-17.27,17.27-28.4-28.09-17.08,17.08-28.08L983,260.31l-28.4-17.26,17.27-28.41-28.41-17.26-28.4-17.27,17.27-28.4-28.41-17.27-28.4-17.26-28.4-17.27-16.9-10.27-11.51-7-.63-.38L804.2,73.82,789.68,65l-28.4-17.27-28.4-17.26L704.47,13.19l-17.26,28.4-28.4-17.26L630.4,7.06l-17.26,28.4L584.73,18.2,556.33.93,539.26,29,511.17,11.94,493.91,40.35,465.5,23.08l-17.26,28.4L431,79.89l-28.4-17.27L385.3,91,368,119.42l-28.41-17.26-17.26,28.4L305.1,159,276.7,141.7l-17.27,28.4-17.26,28.4L224.9,226.91l-17.27,28.4-17.26,28.4L173.1,312.12l-17.27,28.4-17.26,28.4-17.27,28.4L104,425.73l-17.26,28.4L69.5,482.53,52.24,510.94,35,539.34,17.7,567.74.44,596.14l28.4,17.27L46.11,585l28.4,17.26,17.27-28.4,28.4,17.27,17.26-28.41L165.85,580l17.26-28.4,28.41,17.26,28.4,17.27-17.27,28.4,28.41,17.27-17.27,28.4,28.4,17.27-17.26,28.4,28.4,17.27-17.27,28.4,28.41,17.27,28.4,17.26,17.27-28.4,17.26-28.4,17.27-28.4,17.26-28.41,28.41,17.27L438.74,707l28.4,17.26,28.41,17.27-17.27,28.4L461,798.33l-17.26,28.41-17.27,28.4,28.4,17.27,28.41,17.26,17.26-28.4L529,878.54l17.26-28.41,28.41,17.27L591.89,839l28.4,17.26,17.27-28.4L666,845.13l28.41,17.26-17.27,28.4,28.4,17.27-17.26,28.4,28.4,17.27-17.27,28.4,28.41,17.27-17.27,28.4,28.4,17.27,17.27-28.4,17.27-28.41,17.26-28.4L808,931.46l17.26-28.41,17.27-28.4,17.27-28.4L877,817.85l17.27-28.41L911.58,761l17.26-28.4,17.27-28.41,17.27-28.4,17.26-28.4L997.91,619l17.26-28.4ZM417.59,421.84l-28.4-17.26-28.41-17.27,17.27-28.4-28.4-17.27,17.26-28.4L338.51,296l17.27-28.4L373,239.17l17.27-28.41,17.27-28.4L424.84,154l28.41,17.26,17.26-28.4,28.4,17.27L516,132l28.08,17.08,28.4,17.26,28.41,17.27.32.19-17.08,28.09,28.41,17.26-17.27,28.41,28.4,17.26-17.26,28.4-17.27,28.41L571.86,360l-17.26,28.4-17.27,28.41-28.4-17.27L491.66,428l-28.4-17.26L446,439.11Zm501.24,71.31-17.27,28.41L884.3,550,867,578.36l-17.27,28.41-28.4-17.27-17.27,28.4-28.4-17.26L758.42,629,730,611.77l-28.4-17.26-28.4-17.27,17.26-28.4-28.4-17.27,17.27-28.4L650.94,485.9l17.27-28.4,17.27-28.4,17.26-28.41L720,372.29l17.26-28.4,28.41,17.26,17.26-28.4L811.35,350l17.07-28.09.32.2,28.4,17.26,28.4,17.27,28.09,17.07-17.07,28.09L925,419.08l-17.27,28.4,28.4,17.27Z"/></svg>