<svg id="레이어_1" data-name="레이어 1" xmlns="http://www.w3.org/2000/svg" viewBox="0 0 982 982"><defs><style>.cls-1{fill:#48efbb;}</style></defs><title>circle</title><polygon class="cls-1" points="911.69 351.26 911.69 281.14 911.69 211.03 841.58 211.03 841.58 140.91 771.46 140.91 771.46 70.8 701.35 70.8 631.23 70.8 631.23 0.68 561.12 0.68 491 0.68 421.12 0.68 420.88 0.68 351 0.68 351 70.8 350.77 70.8 280.88 70.8 280.65 70.8 210.77 70.8 210.77 140.91 210.54 140.91 140.42 140.91 140.42 211.03 70.31 211.03 70.31 281.14 70.31 351.26 0.19 351.26 0.19 421.38 0.19 491.49 0.19 561.61 0.19 631.72 70.31 631.72 70.31 701.84 70.31 771.95 140.42 771.95 140.42 842.07 210.54 842.07 210.54 912.19 280.65 912.19 350.77 912.19 350.77 982.3 420.88 982.3 491 982.3 560.88 982.3 561.12 982.3 631 982.3 631 912.19 631.23 912.19 701.12 912.19 701.35 912.19 771.23 912.19 771.23 842.07 771.46 842.07 841.58 842.07 841.58 771.95 911.69 771.95 911.69 701.84 911.69 631.72 981.81 631.72 981.81 561.61 981.81 491.49 981.81 421.38 981.81 351.26 911.69 351.26"/></svg>