<svg id="레이어_1" data-name="레이어 1" xmlns="http://www.w3.org/2000/svg" viewBox="0 0 113 70.87"><defs><style>.cls-1{fill:#4900c7;}.cls-2{fill:#fff;}</style></defs><title>close</title><polygon class="cls-1" points="113.25 0 0.25 22.25 0.25 70.87 113.25 48.62 113.25 0"/><path class="cls-2" d="M11,54.14V51.5L8.35,52V49.38l-2.62.52,0-7.9,2.61-.51V38.86l2.61-.52V35.71l10.46-2.05v2.63L24,35.78v2.63l-5.24,1V36.81l-5.23,1v2.63L10.94,41l0,7.89,2.62-.51V51l5.23-1V47.33l5.24-1v2.63l-2.61.51v2.63Z"/><path class="cls-2" d="M29.29,50.55l0-18.43,5.23-1,0,15.79,10.47-2v2.63Z"/><path class="cls-2" d="M50.23,46.44V43.81l-2.62.51,0-13.16,2.62-.51V28l13.08-2.56v2.63l2.62-.51,0,13.15-2.62.52v2.63Zm2.61-3.14,7.85-1.54,0-13.16L52.8,30.14Z"/><path class="cls-2" d="M71.16,42.34V39.71l-2.62.51V37.59l5.24-1V39.2l7.85-1.54V32.39L71.14,34.45V31.81l-2.61.52,0-5.27,2.62-.51V23.92L84.2,21.35V24l2.62-.52V26.1l-5.24,1V24.5L73.74,26V31.3l10.47-2.05v2.63l2.61-.51,0,5.26-2.62.51v2.64Z"/><path class="cls-2" d="M89.48,38.75l0-18.42,18.32-3.59v2.63L94.67,21.93l0,5.27,10.46-2.05v2.63l-10.47,2,0,5.26,13.08-2.56v2.63Z"/></svg>