<svg id="레이어_1" data-name="레이어 1" xmlns="http://www.w3.org/2000/svg" viewBox="0 0 490 490"><defs><style>.cls-1{fill:#ff7f18;}.cls-2{fill:#0002e3;}</style></defs><polygon class="cls-1" points="454.9 174.5 454.9 139.44 454.9 104.38 419.85 104.38 419.85 69.32 384.79 69.32 384.79 34.26 349.73 34.26 314.67 34.26 314.67 -0.79 279.61 -0.79 244.56 -0.79 209.61 -0.79 209.5 -0.79 174.56 -0.79 174.56 34.26 174.44 34.26 139.5 34.26 139.38 34.26 104.44 34.26 104.44 69.32 104.32 69.32 69.27 69.32 69.27 104.38 34.21 104.38 34.21 139.44 34.21 174.5 -0.85 174.5 -0.85 209.55 -0.85 244.61 -0.85 279.67 -0.85 314.73 34.21 314.73 34.21 349.79 34.21 384.84 69.27 384.84 69.27 419.9 104.32 419.9 104.32 454.96 139.38 454.96 174.44 454.96 174.44 490.02 209.5 490.02 244.56 490.02 279.5 490.02 279.61 490.02 314.56 490.02 314.56 454.96 314.67 454.96 349.61 454.96 349.73 454.96 384.67 454.96 384.67 419.9 384.79 419.9 419.85 419.9 419.85 384.84 454.9 384.84 454.9 349.79 454.9 314.73 489.96 314.73 489.96 279.67 489.96 244.61 489.96 209.55 489.96 174.5 454.9 174.5"/><path class="cls-2" d="M124.76,233v-6.85h-6.85v-6.84h-6.84V198.79h6.84v-6.85h6.85V185.1h27.38v6.84H159v6.85H145.3v-6.85H131.61v6.85h-6.85v20.54h6.85v6.84H145.3v-6.84H159v6.84h-6.85V233Z"/><path class="cls-2" d="M172.68,233V185.1h13.69v41.07h27.38V233Z"/><path class="cls-2" d="M227.44,233v-6.85h13.69V191.94H227.44V185.1h41.07v6.84H254.82v34.23h13.69V233Z"/><path class="cls-2" d="M289.05,233v-6.85h-6.84v-6.84h-6.85V198.79h6.85v-6.85h6.84V185.1h27.38v6.84h6.85v6.85H309.59v-6.85H295.9v6.85h-6.85v20.54h6.85v6.84h13.69v-6.84h13.69v6.84h-6.85V233Z"/><path class="cls-2" d="M330.12,233V185.1h13.7v20.53h6.84v-6.84h6.85v-6.85h6.84V185.1H378v6.84H371.2v6.85h-6.85v6.84h-6.84v6.85h6.84v6.85h6.85v6.84H378V233H357.51v-6.85h-6.85v-6.84h-6.84V233Z"/><path class="cls-2" d="M138.45,304.12V256.21h13.69v20.53h20.54V256.21h13.69v47.91H172.68V283.59H152.14v20.53Z"/><path class="cls-2" d="M193.21,304.12V256.21h47.92v6.84H206.91v13.69h27.38v6.85H206.91v13.69h34.22v6.84Z"/><path class="cls-2" d="M248,304.12V256.21h41.07v6.84h6.85v20.54H282.21v6.84h6.84v6.85h6.85v6.84H275.36v-6.84h-6.85v-6.85h-6.84v13.69Zm13.69-20.53h13.69v-6.85h6.85V263.05H261.67Z"/><path class="cls-2" d="M302.74,304.12V256.21h47.92v6.84H316.43v13.69h27.39v6.85H316.43v13.69h34.23v6.84Z"/></svg>