<svg id="레이어_1" data-name="레이어 1" xmlns="http://www.w3.org/2000/svg" viewBox="0 0 643 205"><defs><style>.cls-1{fill:#fff;}</style></defs><path class="cls-1" d="M6.75,201.44V135.86l18.7-4V160l28-6V125.89l18.69-4v65.58l-18.69,4v-28.1l-28,6v28.11Z"/><path class="cls-1" d="M86.61,184.41V175l18.69-4V124.21l-18.7,4v-9.37l56.08-12v9.37l-18.69,4v46.84l18.69-4v9.36Z"/><path class="cls-1" d="M175.81,165.38V109.16l-18.7,4v-9.37l56.08-12v9.37l-18.69,4v56.21Z"/><path class="cls-1" d="M288.79,141.27V75.69l18.69-4v9.37l9.35-2v9.37l9.34-2V77.08l9.35-2V65.72l18.69-4v65.58l-18.7,4V93.83l-9.35,2v18.74l-9.34,2V97.82l-9.35,2v37.47Z"/><path class="cls-1" d="M359.3,126.23V60.65l65.42-14v9.37L378,66V84.77l37.39-8v9.37l-37.39,8v18.73l46.74-10v9.37Z"/><path class="cls-1" d="M509.67,94.15V84.78l-9.35,2V30.56l18.69-4V82.79l28-6V20.59l18.69-4V72.82l-9.35,2v9.37Z"/><path class="cls-1" d="M570.83,81.1V15.52l56.08-12v9.36l9.34-2V39l-9.35,2V50.4l-37.39,8V77.11ZM589.52,49l28-6V14.92l-28,6Z"/></svg>