<?xml version="1.0" encoding="utf-8"?>
<!-- Generator: Adobe Illustrator 25.2.1, SVG Export Plug-In . SVG Version: 6.00 Build 0)  -->
<svg version="1.1" id="레이어_1" xmlns="http://www.w3.org/2000/svg" xmlns:xlink="http://www.w3.org/1999/xlink" x="0px"
	 y="0px" viewBox="0 0 900 135" style="enable-background:new 0 0 900 135;" xml:space="preserve">
<style type="text/css">
	.st0{fill:#F44CC5;}
</style>
<g>
	<polygon class="st0" points="6.2,126.8 125.2,126.8 125.2,109.8 40.2,109.8 40.2,75.8 108.2,75.8 108.2,58.8 40.2,58.8 40.2,24.8 
		125.2,24.8 125.2,7.8 6.2,7.8 	"/>
	<polygon class="st0" points="219.2,41.8 202.2,41.8 202.2,58.8 185.2,58.8 185.2,41.8 168.2,41.8 168.2,7.8 134.2,7.8 134.2,41.8 
		151.2,41.8 151.2,58.8 168.2,58.8 168.2,75.8 151.2,75.8 151.2,92.8 134.2,92.8 134.2,126.8 168.2,126.8 168.2,92.8 185.2,92.8 
		185.2,75.8 202.2,75.8 202.2,92.8 219.2,92.8 219.2,126.8 253.2,126.8 253.2,92.8 236.2,92.8 236.2,75.8 219.2,75.8 219.2,58.8 
		236.2,58.8 236.2,41.8 253.2,41.8 253.2,7.8 219.2,7.8 	"/>
	<path class="st0" d="M364.2,7.8h-102v119h34v-34h68v-17h17v-51h-17V7.8z M347.2,75.8h-51v-51h51V75.8z"/>
	<polygon class="st0" points="441.2,7.8 407.2,7.8 407.2,126.8 509.2,126.8 509.2,109.8 441.2,109.8 	"/>
	<path class="st0" d="M620.2,7.8h-85v17h-17v85h17v17h85v-17h17v-85h-17V7.8z M603.2,109.8h-51v-85h51V109.8z"/>
	<path class="st0" d="M748.3,7.8h-102v119h34v-34h17v17h17v17h51v-17h-17v-17h-17v-17h34v-51h-17V7.8z M731.2,58.8h-17v17h-34v-51
		h51V58.8z"/>
	<polygon class="st0" points="893.3,24.8 893.3,7.8 774.2,7.8 774.2,126.8 893.3,126.8 893.3,109.8 808.2,109.8 808.2,75.8 
		876.3,75.8 876.3,58.8 808.2,58.8 808.2,24.8 	"/>
</g>
</svg>
