<svg id="레이어_1" data-name="레이어 1" xmlns="http://www.w3.org/2000/svg" xmlns:xlink="http://www.w3.org/1999/xlink" viewBox="0 0 143 85.95"><defs><style>.cls-1{fill:none;}.cls-2{stroke:#fff;stroke-miterlimit:10;}.cls-3{clip-path:url(#clip-path);}.cls-4{fill:#fff;}</style><clipPath id="clip-path"><ellipse class="cls-1" cx="71.5" cy="42.97" rx="69.86" ry="41.87"/></clipPath></defs><ellipse class="cls-2" cx="71.5" cy="42.97" rx="69.86" ry="41.87"/><g class="cls-3"><rect class="cls-4" x="70.52" y="0.15" width="1.95" height="85.83"/><path class="cls-4" d="M111.39,86.67l-1.79-.8C132,35.5,109.9.7,109.68.35l1.63-1.07C111.54-.36,134.22,35.27,111.39,86.67Z"/><path class="cls-4" d="M31.61,86.67c-22.83-51.4-.15-87,.08-87.39L33.32.35C33.1.7,11,35.5,33.4,85.87Z"/><rect class="cls-4" x="-5.68" y="42.07" width="154.36" height="1.95"/><path class="cls-4" d="M3,85.88,2.3,84.05c.69-.25,68.9-24.67,134.26,0l-.69,1.83C71.18,61.46,3.65,85.63,3,85.88Z"/><path class="cls-4" d="M72.55,13.06C33.07,13.06,2.76,2.21,2.3,2L3,.21c.67.24,68.22,24.41,132.89,0L136.56,2C114.66,10.3,92.44,13.06,72.55,13.06Z"/></g><rect x="8.37" y="31.87" width="126.26" height="16.73"/><path class="cls-4" d="M24.26,51.69a1,1,0,0,1-1-1V48c0-1.15,0-1.15-1.09-1.15H15.91v3.81a1,1,0,0,1-1,1H8.37a1,1,0,0,1-1-1V31.87a1,1,0,0,1,1-1H23c7.65,0,8.79,4.45,8.79,7.09a6.38,6.38,0,0,1-2,5,4.32,4.32,0,0,1,2,3.92v3.76a1,1,0,0,1-1,1Zm-2.82-12c1.56,0,1.56,0,1.56-.78s0-.78-1.56-.78H15.91v1.56Z"/><path d="M23,31.87c5.2,0,7.79,2.15,7.79,6.09,0,2.88-1.23,4.55-3.5,5.34a3.36,3.36,0,0,1,3.5,3.63v3.76H24.26V48c0-1.68-.41-2.15-2.09-2.15H14.91v4.81H8.37V31.87H23m-8.1,8.79h6.53c1.46,0,2.56,0,2.56-1.78s-1.1-1.78-2.56-1.78H14.91v3.56M23,29.87H8.37a2,2,0,0,0-2,2V50.69a2,2,0,0,0,2,2h6.54a2,2,0,0,0,2-2V47.88h5.35v2.81a2,2,0,0,0,2,2H30.8a2,2,0,0,0,2-2V46.93a5.54,5.54,0,0,0-1.53-4,7.69,7.69,0,0,0,1.53-5c0-2.43-1-8.09-9.79-8.09Z"/><path class="cls-4" d="M41.17,51.69a1,1,0,0,1-1-1V44.77L30.28,32.5a1,1,0,0,1,.78-1.63h8.1a1,1,0,0,1,.8.41l4.48,6,4.48-6a1,1,0,0,1,.8-.41h8.1a1,1,0,0,1,.78,1.63L48.71,44.77v5.92a1,1,0,0,1-1,1Z"/><path d="M57.82,31.87,47.71,44.42v6.27H41.17V44.42L31.06,31.87h8.1l5.28,7.06,5.28-7.06h8.1m0-2h-8.1a2,2,0,0,0-1.6.81l-3.68,4.91-3.68-4.91a2,2,0,0,0-1.6-.81h-8.1a2,2,0,0,0-1.56,3.26l9.67,12v5.56a2,2,0,0,0,2,2h6.54a2,2,0,0,0,2-2V45.13l9.67-12a2,2,0,0,0-1.56-3.26Z"/><path class="cls-4" d="M69.06,52.22c-8.45,0-13.29-4-13.29-11s4.84-10.91,13.29-10.91,13.28,4.08,13.28,10.91S77.38,52.22,69.06,52.22Zm0-14.38c-4,0-4.49,1.73-4.49,3.42s.53,3.47,4.49,3.47,4.49-1.86,4.49-3.47S73,37.84,69.06,37.84Z"/><path d="M69.06,31.35c7.76,0,12.28,3.58,12.28,9.91s-4.52,10-12.28,10-12.29-3.58-12.29-10,4.5-9.91,12.29-9.91m0,14.38c4.26,0,5.49-2,5.49-4.47s-1.21-4.42-5.49-4.42-5.49,2-5.49,4.42,1.23,4.47,5.49,4.47m0-16.38c-9,0-14.29,4.45-14.29,11.91s5.34,12,14.29,12,14.28-4.47,14.28-12S78,29.35,69.06,29.35Zm0,14.38c-3.49,0-3.49-1.43-3.49-2.47s0-2.42,3.49-2.42,3.49,1.4,3.49,2.42,0,2.47-3.49,2.47Z"/><path class="cls-4" d="M99.43,51.69a1,1,0,0,1-.82-.41l-7.12-9.92v9.33a1,1,0,0,1-1,1H84a1,1,0,0,1-1-1V31.87a1,1,0,0,1,1-1h9.67a1,1,0,0,1,.82.42l7.12,9.92V31.87a1,1,0,0,1,1-1h6.54a1,1,0,0,1,1,1V50.69a1,1,0,0,1-1,1Z"/><path d="M109.1,31.87V50.69H99.43L90.49,38.25V50.69H84V31.87h9.67l8.94,12.45V31.87h6.54m0-2h-6.54a2,2,0,0,0-2,2V38.1l-5.31-7.39a2,2,0,0,0-1.63-.84H84a2,2,0,0,0-2,2V50.69a2,2,0,0,0,2,2h6.54a2,2,0,0,0,2-2V44.46l5.31,7.4a2,2,0,0,0,1.63.83h9.67a2,2,0,0,0,2-2V31.87a2,2,0,0,0-2-2Z"/><path class="cls-4" d="M124,52.22c-8.32,0-13.28-4.1-13.28-11s4.91-10.91,12.81-10.91c6.91,0,11.78,3.36,12.11,8.36a1,1,0,0,1-.27.75l0,0a1,1,0,0,1,.31.72V48.6a1,1,0,0,1-.52.88A21.37,21.37,0,0,1,124,52.22Zm-.42-14.38c-2.74,0-4.07,1.2-4.07,3.68,0,1.8.38,3.73,4.88,3.73a12.15,12.15,0,0,0,1.8-.12h-2.63a1,1,0,0,1-1-1V40.21a1,1,0,0,1,1-1h3.23l-.06-.13C126.68,39,126.25,37.84,123.57,37.84Z"/><path d="M123.52,31.35c6.48,0,10.82,3.09,11.11,7.42h-6.95c-.27-.81-1.34-1.93-4.11-1.93-3.58,0-5.07,1.93-5.07,4.68s1.23,4.73,5.88,4.73a12.17,12.17,0,0,0,5-1V44.13h-5.85V40.21h11.08V48.6A20.39,20.39,0,0,1,124,51.22c-7.27,0-12.28-3.32-12.28-10s5-9.91,11.81-9.91m0-2c-8.52,0-13.81,4.56-13.81,11.91s5.47,12,14.28,12a22.47,22.47,0,0,0,11.61-2.87,2,2,0,0,0,1-1.75V40.21a2,2,0,0,0-.14-.72,1.86,1.86,0,0,0,.13-.85c-.36-5.55-5.63-9.29-13.1-9.29Zm-2,14.43c-1-.54-1-1.43-1-2.26a2.21,2.21,0,0,1,1.39-2.43,2,2,0,0,0-.34,1.12v3.57Z"/></svg>