<svg id="레이어_1" data-name="레이어 1" xmlns="http://www.w3.org/2000/svg" viewBox="0 0 113 70.87"><defs><style>.cls-1{fill:#fff;}</style></defs><polygon points="113 48.62 0 70.87 0 22.25 113 0 113 48.62"/><path class="cls-1" d="M13.32,53v-18l5.57-1.1V36.4l2.79-.54v2.57l2.78-.55V35.31l2.79-.55V32.18l5.57-1.09v18l-5.57,1.09V39.91l-2.79.55v5.15l-2.78.55V41l-2.79.55v10.3Z"/><path class="cls-1" d="M35.61,48.57v-18l19.5-3.84v2.57L41.18,32v5.15L52.32,35v2.58L41.18,39.74v5.15l13.93-2.74v2.58Z"/><path class="cls-1" d="M57.89,44.18v-18l5.57-1.1v2.58l2.79-.55v2.57L69,29.1v2.58l2.78-.55V23.4l5.57-1.09v18l-5.57,1.09V36.28L69,36.83V34.26l-2.79.54V32.23l-2.79.55v10.3Z"/><path class="cls-1" d="M83,39.24V36.66l-2.79.55V21.76l5.57-1.1V36.12l8.36-1.65V19l5.57-1.1V33.37l-2.78.55V36.5Z"/></svg>