<svg id="레이어_1" data-name="레이어 1" xmlns="http://www.w3.org/2000/svg" viewBox="0 0 952 524"><defs><style>.cls-1{fill:#fff;}.cls-2,.cls-3{fill:none;stroke:#fff;stroke-miterlimit:10;stroke-width:3px;}.cls-3{font-size:117.73px;font-family:MonumentExtended-Black, Monument Extended;font-weight:800;}.cls-4{letter-spacing:-0.02em;}.cls-5{letter-spacing:-0.01em;}.cls-6{letter-spacing:-0.03em;}.cls-7{letter-spacing:-0.01em;}.cls-8{letter-spacing:-0.04em;}</style></defs><path class="cls-1" d="M168.18,212.37c0,45-28.86,65.36-59.55,65.36H14.23V147h94.4C139.32,147,168.18,167.35,168.18,212.37Zm-77.7,27.24c13.8,0,30.5,0,30.5-27.24s-16.7-27.23-30.5-27.23H59.62v54.47Z"/><path class="cls-1" d="M322.49,181.51h-89v13.62h85.33v34.49H233.53v13.62h89v34.49H188.15V147H322.49Z"/><path class="cls-1" d="M386,234.7c0,8,8.89,14,35.76,14,28,0,32.14-3.81,32.14-9.44,0-7.08-4.18-8.35-37.58-10.89-51.93-3.81-75.71-15.43-75.71-44.48,0-26.69,29.23-40.48,73.89-40.48,51.38,0,79.34,15.61,81.15,44.48h-47.2c0-8.54-10.89-11.81-34-11.81-22.15,0-26.69,3.45-26.69,8,0,5.63,4.54,7.81,35.77,10.53,46.48,4,77.52,7.81,77.52,42.85,0,33.22-29.05,43.93-77.52,43.93-52.47,0-83-12.52-84.78-46.66Z"/><path class="cls-1" d="M564.67,147V277.73H519.28V147Z"/><path class="cls-1" d="M664.88,143.39c45,0,75.16,21.42,77.16,51.56H693.75c-1.82-5.63-9.26-13.44-28.51-13.44C640.37,181.51,630,195,630,214s8.53,32.86,40.85,32.86a84.31,84.31,0,0,0,34.86-6.9v-7.81H665.06V204.93h77v58.28c-26.51,14.7-49.2,18.15-73.89,18.15-50.47,0-85.33-23.05-85.33-69.17C582.82,166.26,617.68,143.39,664.88,143.39Z"/><path class="cls-1" d="M891.26,147h45.39V277.73H869.48l-62.09-86.42v86.42H762V147h67.17l62.09,86.41Z"/><path class="cls-2" d="M115.17,325.64c0,20.13-12.83,32.14-33.9,32.14H43.6v20.48H14.17V293.5h67.1C102.34,293.5,115.17,305.51,115.17,325.64Zm-41,7.41c5.41,0,10.36,0,10.36-7.41s-4.95-7.42-10.36-7.42H43.6v14.83Z"/><path class="cls-2" d="M124.59,335.76c0-28.6,20.25-44.61,55.33-44.61s55.33,16.12,55.33,44.61-20.36,44.85-55.33,44.85S124.59,364.49,124.59,335.76Zm80,0c0-10.95-5.41-19.89-24.72-19.89s-24.72,8.83-24.72,19.89,5.53,20.13,24.72,20.13S204.64,346.83,204.64,335.76Z"/><path class="cls-2" d="M348,361.31v16.95H318.6v-12c0-7.53-1.88-9.65-9.42-9.65H276.46v21.66H247V293.5H313c23.43,0,35.08,9.65,35.08,27.43,0,12.95-5.53,20.48-15.77,24C342,345.53,348,351.18,348,361.31ZM276.46,317v16h29.43c6.59,0,11.54,0,11.54-8s-4.95-8-11.54-8Z"/><path class="cls-2" d="M459.87,318.22H424v60H394.54v-60H358.63V293.5H459.87Z"/><path class="cls-2" d="M558.76,318.22H501.08v12.36H551.7V355.3H501.08v23H471.65V293.5h87.11Z"/><path class="cls-2" d="M567,335.76c0-28.6,20.25-44.61,55.33-44.61s55.33,16.12,55.33,44.61-20.37,44.85-55.33,44.85S567,364.49,567,335.76Zm80,0c0-10.95-5.41-19.89-24.72-19.89s-24.72,8.83-24.72,19.89,5.53,20.13,24.72,20.13S647.05,346.83,647.05,335.76Z"/><path class="cls-2" d="M718.87,353.54H774.2v24.72H689.44V293.5h29.43Z"/><path class="cls-2" d="M815.4,293.5v84.76H786V293.5Z"/><path class="cls-2" d="M827.17,335.76c0-28.6,20.25-44.61,55.33-44.61s55.33,16.12,55.33,44.61-20.36,44.85-55.33,44.85S827.17,364.49,827.17,335.76Zm80.05,0c0-10.95-5.41-19.89-24.72-19.89s-24.72,8.83-24.72,19.89,5.53,20.13,24.72,20.13S907.22,346.83,907.22,335.76Z"/><text class="cls-3" transform="translate(-429.35 -28.49)"><tspan class="cls-4">P</tspan><tspan class="cls-5" x="111.6" y="0">O</tspan><tspan class="cls-6" x="232.86" y="0">R</tspan><tspan class="cls-7" x="345.64" y="0">T</tspan><tspan class="cls-8" x="457.48" y="0">F</tspan><tspan class="cls-5" x="554.01" y="0">O</tspan><tspan x="675.27" y="0">L</tspan><tspan class="cls-5" x="771.8" y="0">I</tspan><tspan x="814.18" y="0">O</tspan></text></svg>